# xmcd
#
# Track frame offsets: 
#        150
#        11347
#        29393
#        46124
#        63401
#        79902
#        96737
#        109090
#        130079
#        143055
#        162887
#
# Disc length: 2270 seconds
#
# Revision: 0
# Processed by: cddbd v1.5.2PL0 Copyright (c) Steve Scherf et al.
# Submitted via: ExactAudioCopy v1.0b1
#
DISCID=8b08dc0b
DTITLE=No Blues - Ya Dunya
DYEAR=2007
DGENRE=Blues, Ethnic
TTITLE0=Longa Shahnaaz 
TTITLE1=Rageen Rambling 
TTITLE2=Ya Dunya 
TTITLE3=Kim's Dream
TTITLE4=Hardened World 
TTITLE5=Black Cadillac
TTITLE6=Shurooq
TTITLE7=Last train to Haifa
TTITLE8=No Reggae
TTITLE9=Hard Killing Floor
TTITLE10=Kim's Dream
EXTD=
EXTT0=
EXTT1=
EXTT2=
EXTT3=
EXTT4=
EXTT5=
EXTT6=
EXTT7=
EXTT8=
EXTT9=
EXTT10=
PLAYORDER=
